# xmcd
#
# Track frame offsets:
#	150
#	17896
#	35224
#	51550
#	72446
#	91112
#	112146
#	128610
#	146523
#	158867
#	174793
#	190059
#	209644
#	223657
#	238728
#	253939
#	277955
#	293892
#
# Disc length: 4132 seconds
#
# Revision: 0
# Processed by: cddbd v1.5.2PL0 Copyright (c) Steve Scherf et al.
# Submitted via: EasyCDDAExtractor 9.1.3.1
#
DISCID=1b102212
DTITLE=Various Artist - PAIXÃO SERTANEJA
DYEAR=2003
DGENRE=Country
TTITLE0=Bruno e Marrone - Vai dar namoro
TTITLE1=Zezé de Camargo e Luciano - Pra mudar minha vida
TTITLE2=Rionegro e Solimões - Madrugada triste
TTITLE3=Rick e Renner - A força do amor
TTITLE4=Gian e Giovani - Na batida do seu coração
TTITLE5=Guilherme e Santiago - O nosso amor
TTITLE6=Marlon e Maicon - Voce vai se arrepender
TTITLE7=Matogrosso e Mathias - Tentei te esquecer
TTITLE8=Edson e Hudson - A força da mixão
TTITLE9=Daniel - Eu sem você
TTITLE10=Leonardo - Brincadeira tem hora
TTITLE11=Leonardo - Eu sei que te perdi
TTITLE12=Ataide e Alexandre - As avenidas
TTITLE13=Ataide e Alexandre - Madrugada amiga
TTITLE14=Dois a um - Sinto falta sua
TTITLE15=Dois a um - Quem de nós dois
TTITLE16=Nashville - Por toda vida
TTITLE17=Teodoro e Sampaio - Quando a saudade aperta
EXTD=
EXTT0=
EXTT1=
EXTT2=
EXTT3=
EXTT4=
EXTT5=
EXTT6=
EXTT7=
EXTT8=
EXTT9=
EXTT10=
EXTT11=
EXTT12=
EXTT13=
EXTT14=
EXTT15=
EXTT16=
EXTT17=
PLAYORDER=
